<svg width="59" height="60" viewBox="0 0 59 60" fill="none" xmlns="http://www.w3.org/2000/svg">
<path d="M22.4794 23.8422C22.8357 23.8419 23.1773 23.7002 23.4293 23.4483C23.6812 23.1964 23.8229 22.8548 23.8232 22.4985V13.2626L13.6738 23.8426L22.4794 23.8422Z" fill="#FEBD59" fill-opacity="0.63"/>
<path d="M37.3576 12.1065C37.3576 12.0218 37.3686 11.9397 37.3703 11.8553H26.4711C26.4964 11.9373 26.5134 12.0215 26.5219 12.1068V22.4984C26.5207 23.5704 26.0944 24.598 25.3364 25.356C24.5785 26.1139 23.5508 26.5402 22.4789 26.5413H12.3789V56.9371C12.3789 57.6462 12.6606 58.3263 13.162 58.8277C13.6634 59.3291 14.3434 59.6107 15.0525 59.6107H48.4938C49.2029 59.6107 49.8829 59.3291 50.3843 58.8277C50.8857 58.3263 51.1674 57.6462 51.1674 56.9371V23.8927C49.4612 24.1763 47.7136 24.0834 46.0471 23.6205C44.3806 23.1577 42.8354 22.336 41.5198 21.2132C40.2042 20.0904 39.1499 18.6935 38.4309 17.1205C37.7119 15.5474 37.3457 13.8361 37.3576 12.1065ZM35.5676 52.5589H31.5854C30.5064 52.5576 29.4663 52.1557 28.6668 51.4311C27.8673 50.7065 27.3653 49.7108 27.2582 48.6371L21.7709 52.3299C21.4739 52.5299 21.1096 52.6036 20.7581 52.535C20.4067 52.4663 20.097 52.2609 19.897 51.9638C19.6971 51.6668 19.6233 51.3025 19.692 50.9511C19.7606 50.5997 19.9661 50.2899 20.2631 50.0899L26.3131 46.0199C26.663 45.7842 27.0705 45.6481 27.4919 45.6263C27.9132 45.6045 28.3326 45.6978 28.705 45.8961C29.0774 46.0944 29.3888 46.3903 29.6059 46.7522C29.8229 47.114 29.9374 47.528 29.9371 47.9499V48.2126C29.9378 48.6495 30.1117 49.0682 30.4207 49.377C30.7297 49.6858 31.1486 49.8595 31.5854 49.8599H35.5678C35.7478 49.8556 35.9269 49.8872 36.0944 49.9531C36.262 50.0189 36.4147 50.1176 36.5436 50.2434C36.6724 50.3692 36.7748 50.5194 36.8447 50.6853C36.9147 50.8513 36.9507 51.0295 36.9507 51.2095C36.9507 51.3896 36.9147 51.5678 36.8447 51.7337C36.7748 51.8997 36.6724 52.0499 36.5436 52.1757C36.4147 52.3014 36.262 52.4002 36.0944 52.466C35.9269 52.5319 35.7476 52.5633 35.5676 52.5589ZM35.5676 40.6947H19.9809C19.6283 40.6867 19.2928 40.541 19.0462 40.2888C18.7997 40.0365 18.6616 39.6978 18.6616 39.3451C18.6616 38.9924 18.7997 38.6537 19.0462 38.4014C19.2928 38.1492 19.6283 38.0035 19.9809 37.9954H35.5678C35.9204 38.0035 36.2559 38.1492 36.5025 38.4014C36.749 38.6537 36.8871 38.9924 36.8871 39.3451C36.8871 39.6978 36.749 40.0365 36.5025 40.2888C36.2559 40.541 35.9202 40.6867 35.5676 40.6947ZM43.0897 52.5589H41.0385C40.6863 52.5504 40.3513 52.4044 40.1052 52.1523C39.8591 51.9001 39.7214 51.5617 39.7214 51.2093C39.7214 50.857 39.8591 50.5186 40.1052 50.2664C40.3513 50.0143 40.6863 49.8683 41.0385 49.8597H43.0897C43.442 49.8683 43.7769 50.0143 44.023 50.2664C44.2691 50.5186 44.4068 50.857 44.4068 51.2093C44.4068 51.5617 44.2691 51.9001 44.023 52.1523C43.7769 52.4044 43.442 52.5504 43.0897 52.5589ZM43.0897 34.4261H19.9809C19.6287 34.4176 19.2937 34.2716 19.0476 34.0195C18.8015 33.7673 18.6638 33.4289 18.6638 33.0765C18.6638 32.7242 18.8015 32.3858 19.0476 32.1336C19.2937 31.8815 19.6287 31.7355 19.9809 31.7269H43.0897C43.442 31.7355 43.7769 31.8815 44.023 32.1336C44.2691 32.3858 44.4068 32.7242 44.4068 33.0765C44.4068 33.4289 44.2691 33.7673 44.023 34.0195C43.7769 34.2716 43.442 34.4176 43.0897 34.4261Z" fill="#FEBD59" fill-opacity="0.63"/>
<path d="M11.8386 11.4955V2.26001L1.68945 12.8393H10.4949C10.8511 12.839 11.1928 12.6973 11.4447 12.4454C11.6966 12.1934 11.8383 11.8518 11.8386 11.4955Z" fill="#FEBD59" fill-opacity="0.63"/>
<path d="M25.1737 9.15546H37.7425C38.0459 7.9663 38.5318 6.83138 39.183 5.79116V3.52626C39.183 2.81718 38.9014 2.13714 38.4 1.63574C37.8986 1.13434 37.2185 0.852661 36.5094 0.852661H14.4867C14.5121 0.934475 14.5291 1.01863 14.5375 1.10386V11.4955C14.5364 12.5674 14.1101 13.5951 13.3521 14.353C12.5941 15.111 11.5665 15.5373 10.4945 15.5385H0.394531V45.9345C0.394531 46.6435 0.676214 47.3236 1.17761 47.825C1.67901 48.3264 2.35905 48.6081 3.06813 48.6081H9.67993V25.192C9.67989 24.4953 9.94916 23.8255 10.4314 23.3228L23.2252 9.98626C23.4772 9.72358 23.7798 9.51457 24.1146 9.3718C24.4495 9.22903 24.8097 9.15544 25.1737 9.15546Z" fill="#FEBD59" fill-opacity="0.63"/>
<path d="M49.3052 2.85999C47.4764 2.85997 45.6887 3.40225 44.1681 4.41825C42.6475 5.43426 41.4623 6.87836 40.7625 8.56793C40.0626 10.2575 39.8795 12.1167 40.2363 13.9103C40.593 15.704 41.4737 17.3516 42.7668 18.6447C44.0599 19.9379 45.7075 20.8185 47.5012 21.1753C49.2948 21.5321 51.154 21.349 52.8436 20.6491C54.5331 19.9493 55.9773 18.7642 56.9933 17.2436C58.0093 15.723 58.5516 13.9353 58.5516 12.1065C58.5516 9.65418 57.5774 7.30231 55.8434 5.56826C54.1094 3.83421 51.7575 2.86001 49.3052 2.85999ZM54.5884 9.99838L49.3108 16.09C49.184 16.2361 49.0274 16.3533 48.8514 16.4337C48.6754 16.5141 48.4843 16.5557 48.2908 16.5558H48.2869C48.0928 16.5553 47.9011 16.5129 47.7249 16.4317C47.5486 16.3505 47.3919 16.2323 47.2654 16.0851L44.7761 13.1808C44.543 12.9088 44.4275 12.5554 44.455 12.1983C44.4824 11.8412 44.6506 11.5096 44.9226 11.2765C45.1945 11.0434 45.548 10.9279 45.9051 10.9553C46.2622 10.9828 46.5938 11.151 46.8269 11.423L48.2969 13.1378L52.5479 8.23059C52.664 8.09657 52.8053 7.98673 52.9638 7.90733C53.1223 7.82793 53.2949 7.78054 53.4717 7.76784C53.6486 7.75515 53.8262 7.77741 53.9944 7.83335C54.1626 7.88929 54.3182 7.97782 54.4522 8.09388C54.5862 8.20995 54.6961 8.35127 54.7755 8.50978C54.8548 8.66829 54.9022 8.84089 54.9149 9.01772C54.9276 9.19455 54.9054 9.37215 54.8494 9.54038C54.7935 9.70861 54.7045 9.86437 54.5884 9.99838Z" fill="#FEBD59" fill-opacity="0.63"/>
</svg>
