<svg width="48" height="48" viewBox="0 0 48 48" fill="none" xmlns="http://www.w3.org/2000/svg">
<g clip-path="url(#clip0_379_50)">
<path d="M16.6919 17.069C21.3747 17.069 25.1709 13.2728 25.1709 8.58996C25.1709 3.90714 21.3747 0.110962 16.6919 0.110962C12.0091 0.110962 8.21289 3.90714 8.21289 8.58996C8.21289 13.2728 12.0091 17.069 16.6919 17.069Z" fill="#0185DA" fill-opacity="0.59"/>
<path d="M35.2634 24.3789L31.4584 32.2519L22.5254 33.3349L29.0044 39.3719L27.5674 47.9959L35.2634 43.8609L42.9584 47.9959L41.3894 39.2569L48.0004 33.3579L39.0674 32.2299L35.2634 24.3789Z" fill="#0185DA" fill-opacity="0.59"/>
<path d="M26.321 40.3L17.065 31.675L29.827 30.127L30.913 27.879C27.977 23.096 22.715 19.895 16.692 19.895C7.473 19.895 0 27.369 0 36.588V41.252V48H25.038L26.321 40.3Z" fill="#0185DA" fill-opacity="0.59"/>
</g>
<defs>
<clipPath id="clip0_379_50">
<rect width="48" height="48" fill="white"/>
</clipPath>
</defs>
</svg>
