<svg width="100" height="98" viewBox="0 0 100 98" fill="none" xmlns="http://www.w3.org/2000/svg">
<path d="M86.9752 25.5294H76.5547V84.164H86.9752C87.3724 84.1641 87.7658 84.0874 88.1328 83.9384C88.4998 83.7895 88.8333 83.5711 89.1142 83.2958C89.3951 83.0206 89.6179 82.6938 89.7699 82.3341C89.9219 81.9744 90.0001 81.5889 90.0001 81.1996V28.4938C90.0001 28.1045 89.9219 27.719 89.7699 27.3593C89.6179 26.9997 89.3951 26.6729 89.1142 26.3976C88.8333 26.1223 88.4998 25.904 88.1328 25.755C87.7658 25.606 87.3724 25.5294 86.9752 25.5294Z" fill="black"/>
<path d="M63.1076 16.9644C63.1076 16.5751 63.0294 16.1896 62.8774 15.8299C62.7254 15.4702 62.5026 15.1434 62.2217 14.8682C61.9408 14.5929 61.6073 14.3745 61.2403 14.2256C60.8733 14.0766 60.4799 14 60.0827 14H39.9146C39.5174 14 39.124 14.0766 38.757 14.2256C38.39 14.3745 38.0565 14.5929 37.7756 14.8682C37.4948 15.1434 37.2719 15.4702 37.1199 15.8299C36.9679 16.1896 36.8897 16.5751 36.8898 16.9644V25.5294H29.4941V84.164H70.5032V25.5294H63.1076V16.9644ZM42.9395 19.9287H57.0578V25.5294H42.9395V19.9287ZM53.1507 72.9643L34.8724 64.6116L39.8443 54.1624L58.1228 62.5151L53.1507 72.9643ZM63.4438 44.1408C63.4438 45.281 63.0988 46.3955 62.4525 47.3435C61.8061 48.2915 60.8874 49.0304 59.8125 49.4667C58.7377 49.903 57.5549 50.0172 56.4139 49.7948C55.2728 49.5723 54.2247 49.0233 53.402 48.2171C52.5794 47.4109 52.0191 46.3837 51.7921 45.2655C51.5652 44.1472 51.6817 42.9881 52.1269 41.9348C52.5721 40.8814 53.3261 39.9811 54.2934 39.3477C55.2608 38.7142 56.3981 38.3761 57.5615 38.3761C58.334 38.3761 59.0989 38.5252 59.8126 38.8149C60.5262 39.1046 61.1747 39.5292 61.7209 40.0645C62.2672 40.5998 62.7005 41.2353 62.9961 41.9348C63.2917 42.6342 63.4438 43.3838 63.4438 44.1408Z" fill="black"/>
<path d="M10 28.4938V81.1996C9.99996 81.5889 10.0782 81.9744 10.2302 82.3341C10.3822 82.6938 10.605 83.0206 10.8859 83.2958C11.1668 83.5711 11.5002 83.7895 11.8673 83.9384C12.2343 84.0874 12.6276 84.1641 13.0249 84.164H23.4454V25.5294H13.0249C12.6276 25.5294 12.2343 25.606 11.8673 25.755C11.5002 25.904 11.1668 26.1223 10.8859 26.3976C10.605 26.6729 10.3822 26.9997 10.2302 27.3593C10.0782 27.719 9.99996 28.1045 10 28.4938Z" fill="black"/>
<rect x="34" y="26" width="33" height="47" fill="black"/>
</svg>
