<svg width="100" height="100" viewBox="0 0 100 100" fill="none" xmlns="http://www.w3.org/2000/svg">
<path d="M15.8357 27.5158C15.2935 27.5158 14.7538 27.2914 14.3677 26.852L10.5915 22.5551C9.87942 21.7449 9.95911 20.5108 10.7693 19.7986C11.5796 19.0865 12.8134 19.1662 13.5257 19.9766L16.0128 22.8067L24.181 15.6318C24.9911 14.9197 26.2255 14.9998 26.9372 15.8104C27.6493 16.6207 27.5693 17.8549 26.7589 18.5668L17.1236 27.0303C16.7529 27.3561 16.2935 27.5158 15.8357 27.5158Z" fill="black"/>
<path d="M21.5156 32.7971H6.86719C5.78867 32.7971 4.91406 31.9227 4.91406 30.844V15.8049C4.91406 14.7262 5.78867 13.8518 6.86719 13.8518H21.5156C22.5941 13.8518 23.4688 14.7262 23.4688 15.8049V30.844C23.4688 31.9227 22.5943 32.7971 21.5156 32.7971ZM8.82031 28.8909H19.5625V17.7581H8.82031V28.8909Z" fill="black"/>
<path d="M21.5156 60.6616H6.86719C5.78867 60.6616 4.91406 59.7872 4.91406 58.7085V43.6694C4.91406 42.5907 5.78867 41.7163 6.86719 41.7163H21.5156C22.5941 41.7163 23.4688 42.5907 23.4688 43.6694V58.7085C23.4688 59.7872 22.5943 60.6616 21.5156 60.6616ZM8.82031 56.7554H19.5625V45.6226H8.82031V56.7554Z" fill="black"/>
<path d="M21.5156 88.5261H6.86719C5.78867 88.5261 4.91406 87.6517 4.91406 86.573V71.5339C4.91406 70.4552 5.78867 69.5808 6.86719 69.5808H21.5156C22.5941 69.5808 23.4688 70.4552 23.4688 71.5339V86.573C23.4688 87.6517 22.5943 88.5261 21.5156 88.5261ZM8.82031 84.6199H19.5625V73.4871H8.82031V84.6199Z" fill="black"/>
<path d="M37.0111 30.782C36.6062 30.782 36.2031 30.6562 35.8628 30.4089C35.2615 29.972 34.9601 29.2314 35.0857 28.4986L35.8679 23.9382L32.5546 20.7083C32.0222 20.1894 31.8308 19.4132 32.0605 18.7062C32.2904 17.9992 32.9015 17.4839 33.6371 17.3769L38.216 16.7115L40.2634 12.5623C40.5925 11.8955 41.2714 11.4734 42.015 11.4734C42.7585 11.4734 43.4375 11.8955 43.7666 12.5621L45.8142 16.7113L50.3931 17.3767C51.1291 17.4835 51.74 17.999 51.9699 18.706C52.1996 19.413 52.008 20.1892 51.4757 20.7082L48.1625 23.938L48.9445 28.4986C49.0701 29.2312 48.7689 29.9718 48.1673 30.4087C47.5658 30.8457 46.7683 30.9033 46.1105 30.5574L42.0148 28.4042L37.9193 30.5574C37.6339 30.7078 37.322 30.782 37.0111 30.782ZM42.0152 24.2447C42.3275 24.2447 42.6394 24.3195 42.924 24.4689L44.4257 25.2583L44.1388 23.5863C44.0302 22.9527 44.2404 22.3062 44.7005 21.8576L45.9154 20.6734L44.2365 20.4294C43.6001 20.3371 43.0503 19.9375 42.7658 19.3611L42.015 17.8398L41.2644 19.3609C40.9798 19.9375 40.43 20.3371 39.7937 20.4294L38.115 20.6734L39.3298 21.8576C39.79 22.3062 40.0001 22.9527 39.8916 23.5863L39.6046 25.2582L41.1062 24.4687C41.3908 24.3195 41.7029 24.2447 42.0152 24.2447Z" fill="black"/>
<path d="M68.5294 30.782C68.2185 30.782 67.9066 30.708 67.6208 30.5578L63.5251 28.4047L59.4296 30.5578C58.7718 30.9039 57.9744 30.8463 57.3728 30.4092C56.7714 29.9723 56.4703 29.2316 56.5957 28.499L57.3777 23.9385L54.0644 20.7086C53.532 20.1896 53.3406 19.4135 53.5703 18.7064C53.8001 17.9994 54.4113 17.4842 55.147 17.3771L59.7259 16.7117L61.7734 12.5625C62.1025 11.8957 62.7814 11.4736 63.5249 11.4736C64.2685 11.4736 64.9472 11.8957 65.2765 12.5623L67.3242 16.7115L71.9031 17.377C72.6388 17.4838 73.2499 17.9992 73.4796 18.7063C73.7093 19.4133 73.5177 20.1895 72.9855 20.7084L69.6722 23.9383L70.4544 28.4986C70.5802 29.2312 70.2789 29.9719 69.6773 30.409C69.3374 30.6561 68.9343 30.782 68.5294 30.782ZM63.5251 24.2447C63.8375 24.2447 64.1494 24.3195 64.4339 24.4689L65.9355 25.2584L65.6486 23.5865C65.54 22.9529 65.7501 22.3064 66.2103 21.8578L67.4251 20.6736L65.7464 20.4297C65.1101 20.3373 64.5603 19.9377 64.2757 19.3613L63.5249 17.84L62.7744 19.3611C62.4898 19.9377 61.94 20.3373 61.3037 20.4297L59.6248 20.6736L60.8396 21.8578C61.2998 22.3064 61.5099 22.9529 61.4013 23.5865L61.1144 25.2584L62.616 24.4689C62.9007 24.3195 63.2128 24.2447 63.5251 24.2447Z" fill="black"/>
<path d="M37.0111 60.843C36.6062 60.843 36.2031 60.7172 35.8628 60.47C35.2615 60.0331 34.9601 59.2924 35.0857 58.5596L35.8679 53.9993L32.5546 50.7694C32.0222 50.2504 31.8308 49.4743 32.0605 48.7672C32.2904 48.0602 32.9015 47.545 33.6371 47.4379L38.216 46.7725L40.2634 42.6233C40.5925 41.9565 41.2714 41.5344 42.015 41.5344C42.7585 41.5344 43.4375 41.9565 43.7666 42.6231L45.8142 46.7723L50.3931 47.4377C51.1291 47.5446 51.74 48.06 51.9699 48.767C52.1996 49.4741 52.008 50.2502 51.4757 50.7692L48.1625 53.9991L48.9445 58.5596C49.0701 59.2922 48.7689 60.0329 48.1673 60.4698C47.5658 60.9067 46.7683 60.9643 46.1105 60.6184L42.0148 58.4653L37.9193 60.6184C37.6339 60.769 37.322 60.843 37.0111 60.843ZM42.0152 54.3057C42.3275 54.3057 42.6394 54.3805 42.924 54.5301L44.4257 55.3196L44.1388 53.6475C44.0302 53.0139 44.2404 52.3676 44.7005 51.9188L45.9154 50.7346L44.2365 50.4907C43.6001 50.3983 43.0503 49.9987 42.7658 49.4223L42.015 47.901L41.2644 49.4221C40.9798 49.9987 40.43 50.3983 39.7937 50.4907L38.115 50.7346L39.3298 51.9188C39.79 52.3674 40.0001 53.0139 39.8916 53.6475L39.6046 55.3194L41.1062 54.5299C41.3908 54.3805 41.7029 54.3057 42.0152 54.3057Z" fill="black"/>
<path d="M68.5294 60.8431C68.2185 60.8431 67.9066 60.769 67.6208 60.6188L63.5251 58.4657L59.4296 60.6188C58.7718 60.9649 57.9744 60.9073 57.3728 60.4702C56.7714 60.0333 56.4703 59.2927 56.5957 58.5601L57.3777 53.9995L54.0644 50.7696C53.532 50.2507 53.3406 49.4745 53.5703 48.7675C53.8001 48.0604 54.4113 47.5452 55.147 47.4382L59.7259 46.7728L61.7734 42.6235C62.1025 41.9567 62.7814 41.5347 63.5249 41.5347C64.2685 41.5347 64.9472 41.9567 65.2765 42.6233L67.3242 46.7726L71.9031 47.438C72.6388 47.5448 73.2499 48.0603 73.4796 48.7673C73.7093 49.4743 73.5177 50.2505 72.9855 50.7694L69.6722 53.9993L70.4544 58.5597C70.5802 59.2923 70.2789 60.0329 69.6773 60.47C69.3374 60.7173 68.9343 60.8431 68.5294 60.8431ZM63.5251 54.3058C63.8375 54.3058 64.1494 54.3806 64.4339 54.5302L65.9355 55.3196L65.6486 53.6478C65.54 53.0142 65.7501 52.3677 66.2103 51.919L67.4251 50.7349L65.7464 50.4909C65.1101 50.3985 64.5603 49.9989 64.2757 49.4226L63.5249 47.9013L62.7744 49.4224C62.4898 49.9989 61.94 50.3985 61.3037 50.4909L59.6248 50.7349L60.8396 51.919C61.2998 52.3677 61.5099 53.0142 61.4013 53.6478L61.1144 55.3198L62.616 54.5304C62.9007 54.3806 63.2128 54.3058 63.5251 54.3058Z" fill="black"/>
<path d="M90.039 30.782C89.7281 30.782 89.4162 30.708 89.1304 30.5576L85.0349 28.4044L80.9394 30.5576C80.2816 30.9037 79.4841 30.846 78.8826 30.4089C78.2812 29.972 77.98 29.2314 78.1054 28.4988L78.8874 23.9382L75.5742 20.7083C75.0417 20.1894 74.8503 19.4132 75.08 18.7062C75.3099 17.9992 75.921 17.4839 76.6568 17.3769L81.2357 16.7115L83.2832 12.5623C83.6123 11.8955 84.2912 11.4734 85.0347 11.4734C85.7783 11.4734 86.457 11.8955 86.7863 12.5621L88.8339 16.7113L93.4128 17.3767C94.1486 17.4835 94.7597 17.999 94.9894 18.706C95.2191 19.413 95.0275 20.1892 94.4953 20.7082L91.182 23.938L91.964 28.4986C92.0896 29.2312 91.7884 29.9718 91.1869 30.4087C90.847 30.656 90.4439 30.782 90.039 30.782ZM85.0349 24.2447C85.3472 24.2447 85.6593 24.3195 85.9437 24.4691L87.4453 25.2585L87.1584 23.5867C87.0498 22.9531 87.2599 22.3066 87.7201 21.858L88.9349 20.6738L87.2562 20.4298C86.6199 20.3375 86.0701 19.9378 85.7855 19.3615L85.0347 17.8402L84.2841 19.3613C83.9996 19.9378 83.4498 20.3375 82.8134 20.4298L81.1345 20.6738L82.3494 21.858C82.8095 22.3066 83.0197 22.9531 82.9111 23.5867L82.6242 25.2585L84.1257 24.4691C84.4105 24.3195 84.7226 24.2447 85.0349 24.2447Z" fill="black"/>
</svg>
